<svg viewBox="-16 -32 880 192" width="880" height="192" xmlns="http://www.w3.org/2000/svg"><desc>Generated with https://github.com/Platane/snk</desc><style>:root{--cb:#1b1f230a;--cs:purple;--ce:#161b22;--c0:#161b22;--c1:#01311f;--c2:#034525;--c3:#0f6d31;--c4:#00c647}.c{shape-rendering:geometricPrecision;fill:var(--ce);stroke-width:1px;stroke:var(--cb);animation:none 22300ms linear infinite;width:12px;height:12px}@keyframes c0{2.23%{fill:var(--c2)}2.25%,100%{fill:var(--ce)}}.c.c0{fill:var(--c2);animation-name:c0}@keyframes c1{6.72%{fill:var(--c2)}6.74%,100%{fill:var(--ce)}}.c.c1{fill:var(--c2);animation-name:c1}@keyframes c2{4.92%{fill:var(--c2)}4.94%,100%{fill:var(--ce)}}.c.c2{fill:var(--c2);animation-name:c2}@keyframes c3{10.75%{fill:var(--c2)}10.77%,100%{fill:var(--ce)}}.c.c3{fill:var(--c2);animation-name:c3}@keyframes c4{57.84%{fill:var(--c4)}57.86%,100%{fill:var(--ce)}}.c.c4{fill:var(--c4);animation-name:c4}@keyframes c5{48.87%{fill:var(--c3)}48.89%,100%{fill:var(--ce)}}.c.c5{fill:var(--c3);animation-name:c5}@keyframes c6{49.32%{fill:var(--c4)}49.34%,100%{fill:var(--ce)}}.c.c6{fill:var(--c4);animation-name:c6}@keyframes c7{19.72%{fill:var(--c2)}19.74%,100%{fill:var(--ce)}}.c.c7{fill:var(--c2);animation-name:c7}@keyframes c8{47.52%{fill:var(--c3)}47.54%,100%{fill:var(--ce)}}.c.c8{fill:var(--c3);animation-name:c8}@keyframes c9{21.96%{fill:var(--c2)}21.98%,100%{fill:var(--ce)}}.c.c9{fill:var(--c2);animation-name:c9}@keyframes ca{33.17%{fill:var(--c2)}33.19%,100%{fill:var(--ce)}}.c.ca{fill:var(--c2);animation-name:ca}@keyframes cb{41.25%{fill:var(--c3)}41.27%,100%{fill:var(--ce)}}.c.cb{fill:var(--c3);animation-name:cb}@keyframes cc{28.24%{fill:var(--c2)}28.26%,100%{fill:var(--ce)}}.c.cc{fill:var(--c2);animation-name:cc}@keyframes cd{40.8%{fill:var(--c3)}40.82%,100%{fill:var(--ce)}}.c.cd{fill:var(--c3);animation-name:cd}@keyframes ce{31.38%{fill:var(--c2)}31.4%,100%{fill:var(--ce)}}.c.ce{fill:var(--c2);animation-name:ce}@keyframes cf{30.93%{fill:var(--c2)}30.95%,100%{fill:var(--ce)}}.c.cf{fill:var(--c2);animation-name:cf}@keyframes cg{34.07%{fill:var(--c2)}34.09%,100%{fill:var(--ce)}}.c.cg{fill:var(--c2);animation-name:cg}@keyframes ch{38.11%{fill:var(--c3)}38.13%,100%{fill:var(--ce)}}.c.ch{fill:var(--c3);animation-name:ch}@keyframes ci{28.69%{fill:var(--c2)}28.71%,100%{fill:var(--ce)}}.c.ci{fill:var(--c2);animation-name:ci}@keyframes cj{36.31%{fill:var(--c2)}36.33%,100%{fill:var(--ce)}}.c.cj{fill:var(--c2);animation-name:cj}@keyframes ck{39.9%{fill:var(--c3)}39.92%,100%{fill:var(--ce)}}.c.ck{fill:var(--c3);animation-name:ck}@keyframes cl{30.48%{fill:var(--c2)}30.5%,100%{fill:var(--ce)}}.c.cl{fill:var(--c2);animation-name:cl}@keyframes cm{30.03%{fill:var(--c2)}30.05%,100%{fill:var(--ce)}}.c.cm{fill:var(--c2);animation-name:cm}@keyframes cn{29.59%{fill:var(--c2)}29.61%,100%{fill:var(--ce)}}.c.cn{fill:var(--c2);animation-name:cn}@keyframes co{29.14%{fill:var(--c2)}29.16%,100%{fill:var(--ce)}}.c.co{fill:var(--c2);animation-name:co}@keyframes cp{73.98%{fill:var(--c4)}74%,100%{fill:var(--ce)}}.c.cp{fill:var(--c4);animation-name:cp}.u{transform-origin:0 0;transform:scale(0,1);animation:none linear 22300ms infinite}@keyframes u0{2.23%{transform:scale(0.000,1)}2.25%,4.92%{transform:scale(0.059,1)}4.94%,6.72%{transform:scale(0.118,1)}6.74%,10.75%{transform:scale(0.176,1)}10.77%,19.72%{transform:scale(0.235,1)}19.74%,21.96%{transform:scale(0.294,1)}21.98%,28.24%{transform:scale(0.353,1)}28.26%,28.69%{transform:scale(0.412,1)}28.71%,29.14%{transform:scale(0.471,1)}29.16%,29.59%{transform:scale(0.529,1)}29.61%,30.03%{transform:scale(0.588,1)}30.05%,30.48%{transform:scale(0.647,1)}30.5%,30.93%{transform:scale(0.706,1)}30.95%,31.38%{transform:scale(0.765,1)}31.4%,33.17%{transform:scale(0.824,1)}33.19%,34.07%{transform:scale(0.882,1)}34.09%,36.31%{transform:scale(0.941,1)}36.33%,100%{transform:scale(1.000,1)}}.u.u0{fill:var(--c2);animation-name:u0;transform-origin:0.0px 0}@keyframes u1{38.11%{transform:scale(0.000,1)}38.13%,39.9%{transform:scale(0.167,1)}39.92%,40.8%{transform:scale(0.333,1)}40.82%,41.25%{transform:scale(0.500,1)}41.27%,47.52%{transform:scale(0.667,1)}47.54%,48.87%{transform:scale(0.833,1)}48.89%,100%{transform:scale(1.000,1)}}.u.u1{fill:var(--c3);animation-name:u1;transform-origin:554.5px 0}@keyframes u2{49.32%{transform:scale(0.000,1)}49.34%,57.84%{transform:scale(0.333,1)}57.86%,73.98%{transform:scale(0.667,1)}74%,100%{transform:scale(1.000,1)}}.u.u2{fill:var(--c4);animation-name:u2;transform-origin:750.2px 0}.s{shape-rendering:geometricPrecision;fill:var(--cs);animation:none linear 22300ms infinite}@keyframes s0{0%,99.55%{transform:translate(0px,-16px)}0.45%{transform:translate(0px,0px)}4.48%{transform:translate(144px,0px)}4.93%{transform:translate(144px,16px)}5.38%{transform:translate(128px,16px)}6.73%{transform:translate(128px,64px)}9.87%{transform:translate(240px,64px)}10.31%{transform:translate(240px,48px)}18.83%{transform:translate(544px,48px)}19.73%{transform:translate(544px,16px)}20.18%{transform:translate(560px,16px)}21.97%{transform:translate(560px,80px)}29.15%,35.43%{transform:translate(816px,80px)}30.49%{transform:translate(816px,32px)}30.94%{transform:translate(800px,32px)}31.39%{transform:translate(800px,16px)}32.29%{transform:translate(768px,16px)}33.18%{transform:translate(768px,48px)}34.53%,39.01%{transform:translate(816px,48px)}35.87%{transform:translate(800px,80px)}36.32%{transform:translate(800px,96px)}36.77%{transform:translate(816px,96px)}37.67%{transform:translate(816px,64px)}38.12%{transform:translate(800px,64px)}38.57%{transform:translate(800px,48px)}40.36%{transform:translate(816px,0px)}48.88%{transform:translate(512px,0px)}49.33%{transform:translate(512px,16px)}56.5%,91.48%{transform:translate(256px,16px)}57.85%{transform:translate(256px,64px)}73.99%{transform:translate(832px,64px)}74.44%{transform:translate(832px,48px)}89.69%{transform:translate(288px,48px)}90.58%{transform:translate(288px,16px)}91.93%{transform:translate(256px,0px)}96.86%{transform:translate(80px,0px)}97.31%{transform:translate(80px,-16px)}}.s.s0{transform:translate(0px,-16px);animation-name:s0}@keyframes s1{0%,99.55%{transform:translate(16px,-16px)}0.45%{transform:translate(0px,-16px)}0.9%{transform:translate(0px,0px)}4.93%{transform:translate(144px,0px)}5.38%{transform:translate(144px,16px)}5.83%{transform:translate(128px,16px)}7.17%{transform:translate(128px,64px)}10.31%{transform:translate(240px,64px)}10.76%{transform:translate(240px,48px)}19.28%{transform:translate(544px,48px)}20.18%{transform:translate(544px,16px)}20.63%{transform:translate(560px,16px)}22.42%{transform:translate(560px,80px)}29.6%,35.87%{transform:translate(816px,80px)}30.94%{transform:translate(816px,32px)}31.39%{transform:translate(800px,32px)}31.84%{transform:translate(800px,16px)}32.74%{transform:translate(768px,16px)}33.63%{transform:translate(768px,48px)}34.98%,39.46%{transform:translate(816px,48px)}36.32%{transform:translate(800px,80px)}36.77%{transform:translate(800px,96px)}37.22%{transform:translate(816px,96px)}38.12%{transform:translate(816px,64px)}38.57%{transform:translate(800px,64px)}39.01%{transform:translate(800px,48px)}40.81%{transform:translate(816px,0px)}49.33%{transform:translate(512px,0px)}49.78%{transform:translate(512px,16px)}56.95%,91.93%{transform:translate(256px,16px)}58.3%{transform:translate(256px,64px)}74.44%{transform:translate(832px,64px)}74.89%{transform:translate(832px,48px)}90.13%{transform:translate(288px,48px)}91.03%{transform:translate(288px,16px)}92.38%{transform:translate(256px,0px)}97.31%{transform:translate(80px,0px)}97.76%{transform:translate(80px,-16px)}}.s.s1{transform:translate(16px,-16px);animation-name:s1}@keyframes s2{0%,99.55%{transform:translate(32px,-16px)}0.9%{transform:translate(0px,-16px)}1.35%{transform:translate(0px,0px)}5.38%{transform:translate(144px,0px)}5.83%{transform:translate(144px,16px)}6.28%{transform:translate(128px,16px)}7.62%{transform:translate(128px,64px)}10.76%{transform:translate(240px,64px)}11.21%{transform:translate(240px,48px)}19.73%{transform:translate(544px,48px)}20.63%{transform:translate(544px,16px)}21.08%{transform:translate(560px,16px)}22.87%{transform:translate(560px,80px)}30.04%,36.32%{transform:translate(816px,80px)}31.39%{transform:translate(816px,32px)}31.84%{transform:translate(800px,32px)}32.29%{transform:translate(800px,16px)}33.18%{transform:translate(768px,16px)}34.08%{transform:translate(768px,48px)}35.43%,39.91%{transform:translate(816px,48px)}36.77%{transform:translate(800px,80px)}37.22%{transform:translate(800px,96px)}37.67%{transform:translate(816px,96px)}38.57%{transform:translate(816px,64px)}39.01%{transform:translate(800px,64px)}39.46%{transform:translate(800px,48px)}41.26%{transform:translate(816px,0px)}49.78%{transform:translate(512px,0px)}50.22%{transform:translate(512px,16px)}57.4%,92.38%{transform:translate(256px,16px)}58.74%{transform:translate(256px,64px)}74.89%{transform:translate(832px,64px)}75.34%{transform:translate(832px,48px)}90.58%{transform:translate(288px,48px)}91.48%{transform:translate(288px,16px)}92.83%{transform:translate(256px,0px)}97.76%{transform:translate(80px,0px)}98.21%{transform:translate(80px,-16px)}}.s.s2{transform:translate(32px,-16px);animation-name:s2}@keyframes s3{0%,99.55%{transform:translate(48px,-16px)}1.35%{transform:translate(0px,-16px)}1.79%{transform:translate(0px,0px)}5.83%{transform:translate(144px,0px)}6.28%{transform:translate(144px,16px)}6.73%{transform:translate(128px,16px)}8.07%{transform:translate(128px,64px)}11.21%{transform:translate(240px,64px)}11.66%{transform:translate(240px,48px)}20.18%{transform:translate(544px,48px)}21.08%{transform:translate(544px,16px)}21.52%{transform:translate(560px,16px)}23.32%{transform:translate(560px,80px)}30.49%,36.77%{transform:translate(816px,80px)}31.84%{transform:translate(816px,32px)}32.29%{transform:translate(800px,32px)}32.74%{transform:translate(800px,16px)}33.63%{transform:translate(768px,16px)}34.53%{transform:translate(768px,48px)}35.87%,40.36%{transform:translate(816px,48px)}37.22%{transform:translate(800px,80px)}37.67%{transform:translate(800px,96px)}38.12%{transform:translate(816px,96px)}39.01%{transform:translate(816px,64px)}39.46%{transform:translate(800px,64px)}39.91%{transform:translate(800px,48px)}41.7%{transform:translate(816px,0px)}50.22%{transform:translate(512px,0px)}50.67%{transform:translate(512px,16px)}57.85%,92.83%{transform:translate(256px,16px)}59.19%{transform:translate(256px,64px)}75.34%{transform:translate(832px,64px)}75.78%{transform:translate(832px,48px)}91.03%{transform:translate(288px,48px)}91.93%{transform:translate(288px,16px)}93.27%{transform:translate(256px,0px)}98.21%{transform:translate(80px,0px)}98.65%{transform:translate(80px,-16px)}}.s.s3{transform:translate(48px,-16px);animation-name:s3}</style><rect class="c" x="2" y="2" rx="2" ry="2"/><rect class="c" x="2" y="18" rx="2" ry="2"/><rect class="c" x="2" y="34" rx="2" ry="2"/><rect class="c" x="2" y="50" rx="2" ry="2"/><rect class="c" x="2" y="66" rx="2" ry="2"/><rect class="c" x="2" y="82" rx="2" ry="2"/><rect class="c" x="2" y="98" rx="2" ry="2"/><rect class="c" x="18" y="2" rx="2" ry="2"/><rect class="c" x="18" y="18" rx="2" ry="2"/><rect class="c" x="18" y="34" rx="2" ry="2"/><rect class="c" x="18" y="50" rx="2" ry="2"/><rect class="c" x="18" y="66" rx="2" ry="2"/><rect class="c" x="18" y="82" rx="2" ry="2"/><rect class="c" x="18" y="98" rx="2" ry="2"/><rect class="c" x="34" y="2" rx="2" ry="2"/><rect class="c" x="34" y="18" rx="2" ry="2"/><rect class="c" x="34" y="34" rx="2" ry="2"/><rect class="c" x="34" y="50" rx="2" ry="2"/><rect class="c" x="34" y="66" rx="2" ry="2"/><rect class="c" x="34" y="82" rx="2" ry="2"/><rect class="c" x="34" y="98" rx="2" ry="2"/><rect class="c" x="50" y="2" rx="2" ry="2"/><rect class="c" x="50" y="18" rx="2" ry="2"/><rect class="c" x="50" y="34" rx="2" ry="2"/><rect class="c" x="50" y="50" rx="2" ry="2"/><rect class="c" x="50" y="66" rx="2" ry="2"/><rect class="c" x="50" y="82" rx="2" ry="2"/><rect class="c" x="50" y="98" rx="2" ry="2"/><rect class="c c0" x="66" y="2" rx="2" ry="2"/><rect class="c" x="66" y="18" rx="2" ry="2"/><rect class="c" x="66" y="34" rx="2" ry="2"/><rect class="c" x="66" y="50" rx="2" ry="2"/><rect class="c" x="66" y="66" rx="2" ry="2"/><rect class="c" x="66" y="82" rx="2" ry="2"/><rect class="c" x="66" y="98" rx="2" ry="2"/><rect class="c" x="82" y="2" rx="2" ry="2"/><rect class="c" x="82" y="18" rx="2" ry="2"/><rect class="c" x="82" y="34" rx="2" ry="2"/><rect class="c" x="82" y="50" rx="2" ry="2"/><rect class="c" x="82" y="66" rx="2" ry="2"/><rect class="c" x="82" y="82" rx="2" ry="2"/><rect class="c" x="82" y="98" rx="2" ry="2"/><rect class="c" x="98" y="2" rx="2" ry="2"/><rect class="c" x="98" y="18" rx="2" ry="2"/><rect class="c" x="98" y="34" rx="2" ry="2"/><rect class="c" x="98" y="50" rx="2" ry="2"/><rect class="c" x="98" y="66" rx="2" ry="2"/><rect class="c" x="98" y="82" rx="2" ry="2"/><rect class="c" x="98" y="98" rx="2" ry="2"/><rect class="c" x="114" y="2" rx="2" ry="2"/><rect class="c" x="114" y="18" rx="2" ry="2"/><rect class="c" x="114" y="34" rx="2" ry="2"/><rect class="c" x="114" y="50" rx="2" ry="2"/><rect class="c" x="114" y="66" rx="2" ry="2"/><rect class="c" x="114" y="82" rx="2" ry="2"/><rect class="c" x="114" y="98" rx="2" ry="2"/><rect class="c" x="130" y="2" rx="2" ry="2"/><rect class="c" x="130" y="18" rx="2" ry="2"/><rect class="c" x="130" y="34" rx="2" ry="2"/><rect class="c" x="130" y="50" rx="2" ry="2"/><rect class="c c1" x="130" y="66" rx="2" ry="2"/><rect class="c" x="130" y="82" rx="2" ry="2"/><rect class="c" x="130" y="98" rx="2" ry="2"/><rect class="c" x="146" y="2" rx="2" ry="2"/><rect class="c c2" x="146" y="18" rx="2" ry="2"/><rect class="c" x="146" y="34" rx="2" ry="2"/><rect class="c" x="146" y="50" rx="2" ry="2"/><rect class="c" x="146" y="66" rx="2" ry="2"/><rect class="c" x="146" y="82" rx="2" ry="2"/><rect class="c" x="146" y="98" rx="2" ry="2"/><rect class="c" x="162" y="2" rx="2" ry="2"/><rect class="c" x="162" y="18" rx="2" ry="2"/><rect class="c" x="162" y="34" rx="2" ry="2"/><rect class="c" x="162" y="50" rx="2" ry="2"/><rect class="c" x="162" y="66" rx="2" ry="2"/><rect class="c" x="162" y="82" rx="2" ry="2"/><rect class="c" x="162" y="98" rx="2" ry="2"/><rect class="c" x="178" y="2" rx="2" ry="2"/><rect class="c" x="178" y="18" rx="2" ry="2"/><rect class="c" x="178" y="34" rx="2" ry="2"/><rect class="c" x="178" y="50" rx="2" ry="2"/><rect class="c" x="178" y="66" rx="2" ry="2"/><rect class="c" x="178" y="82" rx="2" ry="2"/><rect class="c" x="178" y="98" rx="2" ry="2"/><rect class="c" x="194" y="2" rx="2" ry="2"/><rect class="c" x="194" y="18" rx="2" ry="2"/><rect class="c" x="194" y="34" rx="2" ry="2"/><rect class="c" x="194" y="50" rx="2" ry="2"/><rect class="c" x="194" y="66" rx="2" ry="2"/><rect class="c" x="194" y="82" rx="2" ry="2"/><rect class="c" x="194" y="98" rx="2" ry="2"/><rect class="c" x="210" y="2" rx="2" ry="2"/><rect class="c" x="210" y="18" rx="2" ry="2"/><rect class="c" x="210" y="34" rx="2" ry="2"/><rect class="c" x="210" y="50" rx="2" ry="2"/><rect class="c" x="210" y="66" rx="2" ry="2"/><rect class="c" x="210" y="82" rx="2" ry="2"/><rect class="c" x="210" y="98" rx="2" ry="2"/><rect class="c" x="226" y="2" rx="2" ry="2"/><rect class="c" x="226" y="18" rx="2" ry="2"/><rect class="c" x="226" y="34" rx="2" ry="2"/><rect class="c" x="226" y="50" rx="2" ry="2"/><rect class="c" x="226" y="66" rx="2" ry="2"/><rect class="c" x="226" y="82" rx="2" ry="2"/><rect class="c" x="226" y="98" rx="2" ry="2"/><rect class="c" x="242" y="2" rx="2" ry="2"/><rect class="c" x="242" y="18" rx="2" ry="2"/><rect class="c" x="242" y="34" rx="2" ry="2"/><rect class="c" x="242" y="50" rx="2" ry="2"/><rect class="c" x="242" y="66" rx="2" ry="2"/><rect class="c" x="242" y="82" rx="2" ry="2"/><rect class="c" x="242" y="98" rx="2" ry="2"/><rect class="c" x="258" y="2" rx="2" ry="2"/><rect class="c" x="258" y="18" rx="2" ry="2"/><rect class="c" x="258" y="34" rx="2" ry="2"/><rect class="c c3" x="258" y="50" rx="2" ry="2"/><rect class="c c4" x="258" y="66" rx="2" ry="2"/><rect class="c" x="258" y="82" rx="2" ry="2"/><rect class="c" x="258" y="98" rx="2" ry="2"/><rect class="c" x="274" y="2" rx="2" ry="2"/><rect class="c" x="274" y="18" rx="2" ry="2"/><rect class="c" x="274" y="34" rx="2" ry="2"/><rect class="c" x="274" y="50" rx="2" ry="2"/><rect class="c" x="274" y="66" rx="2" ry="2"/><rect class="c" x="274" y="82" rx="2" ry="2"/><rect class="c" x="274" y="98" rx="2" ry="2"/><rect class="c" x="290" y="2" rx="2" ry="2"/><rect class="c" x="290" y="18" rx="2" ry="2"/><rect class="c" x="290" y="34" rx="2" ry="2"/><rect class="c" x="290" y="50" rx="2" ry="2"/><rect class="c" x="290" y="66" rx="2" ry="2"/><rect class="c" x="290" y="82" rx="2" ry="2"/><rect class="c" x="290" y="98" rx="2" ry="2"/><rect class="c" x="306" y="2" rx="2" ry="2"/><rect class="c" x="306" y="18" rx="2" ry="2"/><rect class="c" x="306" y="34" rx="2" ry="2"/><rect class="c" x="306" y="50" rx="2" ry="2"/><rect class="c" x="306" y="66" rx="2" ry="2"/><rect class="c" x="306" y="82" rx="2" ry="2"/><rect class="c" x="306" y="98" rx="2" ry="2"/><rect class="c" x="322" y="2" rx="2" ry="2"/><rect class="c" x="322" y="18" rx="2" ry="2"/><rect class="c" x="322" y="34" rx="2" ry="2"/><rect class="c" x="322" y="50" rx="2" ry="2"/><rect class="c" x="322" y="66" rx="2" ry="2"/><rect class="c" x="322" y="82" rx="2" ry="2"/><rect class="c" x="322" y="98" rx="2" ry="2"/><rect class="c" x="338" y="2" rx="2" ry="2"/><rect class="c" x="338" y="18" rx="2" ry="2"/><rect class="c" x="338" y="34" rx="2" ry="2"/><rect class="c" x="338" y="50" rx="2" ry="2"/><rect class="c" x="338" y="66" rx="2" ry="2"/><rect class="c" x="338" y="82" rx="2" ry="2"/><rect class="c" x="338" y="98" rx="2" ry="2"/><rect class="c" x="354" y="2" rx="2" ry="2"/><rect class="c" x="354" y="18" rx="2" ry="2"/><rect class="c" x="354" y="34" rx="2" ry="2"/><rect class="c" x="354" y="50" rx="2" ry="2"/><rect class="c" x="354" y="66" rx="2" ry="2"/><rect class="c" x="354" y="82" rx="2" ry="2"/><rect class="c" x="354" y="98" rx="2" ry="2"/><rect class="c" x="370" y="2" rx="2" ry="2"/><rect class="c" x="370" y="18" rx="2" ry="2"/><rect class="c" x="370" y="34" rx="2" ry="2"/><rect class="c" x="370" y="50" rx="2" ry="2"/><rect class="c" x="370" y="66" rx="2" ry="2"/><rect class="c" x="370" y="82" rx="2" ry="2"/><rect class="c" x="370" y="98" rx="2" ry="2"/><rect class="c" x="386" y="2" rx="2" ry="2"/><rect class="c" x="386" y="18" rx="2" ry="2"/><rect class="c" x="386" y="34" rx="2" ry="2"/><rect class="c" x="386" y="50" rx="2" ry="2"/><rect class="c" x="386" y="66" rx="2" ry="2"/><rect class="c" x="386" y="82" rx="2" ry="2"/><rect class="c" x="386" y="98" rx="2" ry="2"/><rect class="c" x="402" y="2" rx="2" ry="2"/><rect class="c" x="402" y="18" rx="2" ry="2"/><rect class="c" x="402" y="34" rx="2" ry="2"/><rect class="c" x="402" y="50" rx="2" ry="2"/><rect class="c" x="402" y="66" rx="2" ry="2"/><rect class="c" x="402" y="82" rx="2" ry="2"/><rect class="c" x="402" y="98" rx="2" ry="2"/><rect class="c" x="418" y="2" rx="2" ry="2"/><rect class="c" x="418" y="18" rx="2" ry="2"/><rect class="c" x="418" y="34" rx="2" ry="2"/><rect class="c" x="418" y="50" rx="2" ry="2"/><rect class="c" x="418" y="66" rx="2" ry="2"/><rect class="c" x="418" y="82" rx="2" ry="2"/><rect class="c" x="418" y="98" rx="2" ry="2"/><rect class="c" x="434" y="2" rx="2" ry="2"/><rect class="c" x="434" y="18" rx="2" ry="2"/><rect class="c" x="434" y="34" rx="2" ry="2"/><rect class="c" x="434" y="50" rx="2" ry="2"/><rect class="c" x="434" y="66" rx="2" ry="2"/><rect class="c" x="434" y="82" rx="2" ry="2"/><rect class="c" x="434" y="98" rx="2" ry="2"/><rect class="c" x="450" y="2" rx="2" ry="2"/><rect class="c" x="450" y="18" rx="2" ry="2"/><rect class="c" x="450" y="34" rx="2" ry="2"/><rect class="c" x="450" y="50" rx="2" ry="2"/><rect class="c" x="450" y="66" rx="2" ry="2"/><rect class="c" x="450" y="82" rx="2" ry="2"/><rect class="c" x="450" y="98" rx="2" ry="2"/><rect class="c" x="466" y="2" rx="2" ry="2"/><rect class="c" x="466" y="18" rx="2" ry="2"/><rect class="c" x="466" y="34" rx="2" ry="2"/><rect class="c" x="466" y="50" rx="2" ry="2"/><rect class="c" x="466" y="66" rx="2" ry="2"/><rect class="c" x="466" y="82" rx="2" ry="2"/><rect class="c" x="466" y="98" rx="2" ry="2"/><rect class="c" x="482" y="2" rx="2" ry="2"/><rect class="c" x="482" y="18" rx="2" ry="2"/><rect class="c" x="482" y="34" rx="2" ry="2"/><rect class="c" x="482" y="50" rx="2" ry="2"/><rect class="c" x="482" y="66" rx="2" ry="2"/><rect class="c" x="482" y="82" rx="2" ry="2"/><rect class="c" x="482" y="98" rx="2" ry="2"/><rect class="c" x="498" y="2" rx="2" ry="2"/><rect class="c" x="498" y="18" rx="2" ry="2"/><rect class="c" x="498" y="34" rx="2" ry="2"/><rect class="c" x="498" y="50" rx="2" ry="2"/><rect class="c" x="498" y="66" rx="2" ry="2"/><rect class="c" x="498" y="82" rx="2" ry="2"/><rect class="c" x="498" y="98" rx="2" ry="2"/><rect class="c c5" x="514" y="2" rx="2" ry="2"/><rect class="c c6" x="514" y="18" rx="2" ry="2"/><rect class="c" x="514" y="34" rx="2" ry="2"/><rect class="c" x="514" y="50" rx="2" ry="2"/><rect class="c" x="514" y="66" rx="2" ry="2"/><rect class="c" x="514" y="82" rx="2" ry="2"/><rect class="c" x="514" y="98" rx="2" ry="2"/><rect class="c" x="530" y="2" rx="2" ry="2"/><rect class="c" x="530" y="18" rx="2" ry="2"/><rect class="c" x="530" y="34" rx="2" ry="2"/><rect class="c" x="530" y="50" rx="2" ry="2"/><rect class="c" x="530" y="66" rx="2" ry="2"/><rect class="c" x="530" y="82" rx="2" ry="2"/><rect class="c" x="530" y="98" rx="2" ry="2"/><rect class="c" x="546" y="2" rx="2" ry="2"/><rect class="c c7" x="546" y="18" rx="2" ry="2"/><rect class="c" x="546" y="34" rx="2" ry="2"/><rect class="c" x="546" y="50" rx="2" ry="2"/><rect class="c" x="546" y="66" rx="2" ry="2"/><rect class="c" x="546" y="82" rx="2" ry="2"/><rect class="c" x="546" y="98" rx="2" ry="2"/><rect class="c c8" x="562" y="2" rx="2" ry="2"/><rect class="c" x="562" y="18" rx="2" ry="2"/><rect class="c" x="562" y="34" rx="2" ry="2"/><rect class="c" x="562" y="50" rx="2" ry="2"/><rect class="c" x="562" y="66" rx="2" ry="2"/><rect class="c c9" x="562" y="82" rx="2" ry="2"/><rect class="c" x="562" y="98" rx="2" ry="2"/><rect class="c" x="578" y="2" rx="2" ry="2"/><rect class="c" x="578" y="18" rx="2" ry="2"/><rect class="c" x="578" y="34" rx="2" ry="2"/><rect class="c" x="578" y="50" rx="2" ry="2"/><rect class="c" x="578" y="66" rx="2" ry="2"/><rect class="c" x="578" y="82" rx="2" ry="2"/><rect class="c" x="578" y="98" rx="2" ry="2"/><rect class="c" x="594" y="2" rx="2" ry="2"/><rect class="c" x="594" y="18" rx="2" ry="2"/><rect class="c" x="594" y="34" rx="2" ry="2"/><rect class="c" x="594" y="50" rx="2" ry="2"/><rect class="c" x="594" y="66" rx="2" ry="2"/><rect class="c" x="594" y="82" rx="2" ry="2"/><rect class="c" x="594" y="98" rx="2" ry="2"/><rect class="c" x="610" y="2" rx="2" ry="2"/><rect class="c" x="610" y="18" rx="2" ry="2"/><rect class="c" x="610" y="34" rx="2" ry="2"/><rect class="c" x="610" y="50" rx="2" ry="2"/><rect class="c" x="610" y="66" rx="2" ry="2"/><rect class="c" x="610" y="82" rx="2" ry="2"/><rect class="c" x="610" y="98" rx="2" ry="2"/><rect class="c" x="626" y="2" rx="2" ry="2"/><rect class="c" x="626" y="18" rx="2" ry="2"/><rect class="c" x="626" y="34" rx="2" ry="2"/><rect class="c" x="626" y="50" rx="2" ry="2"/><rect class="c" x="626" y="66" rx="2" ry="2"/><rect class="c" x="626" y="82" rx="2" ry="2"/><rect class="c" x="626" y="98" rx="2" ry="2"/><rect class="c" x="642" y="2" rx="2" ry="2"/><rect class="c" x="642" y="18" rx="2" ry="2"/><rect class="c" x="642" y="34" rx="2" ry="2"/><rect class="c" x="642" y="50" rx="2" ry="2"/><rect class="c" x="642" y="66" rx="2" ry="2"/><rect class="c" x="642" y="82" rx="2" ry="2"/><rect class="c" x="642" y="98" rx="2" ry="2"/><rect class="c" x="658" y="2" rx="2" ry="2"/><rect class="c" x="658" y="18" rx="2" ry="2"/><rect class="c" x="658" y="34" rx="2" ry="2"/><rect class="c" x="658" y="50" rx="2" ry="2"/><rect class="c" x="658" y="66" rx="2" ry="2"/><rect class="c" x="658" y="82" rx="2" ry="2"/><rect class="c" x="658" y="98" rx="2" ry="2"/><rect class="c" x="674" y="2" rx="2" ry="2"/><rect class="c" x="674" y="18" rx="2" ry="2"/><rect class="c" x="674" y="34" rx="2" ry="2"/><rect class="c" x="674" y="50" rx="2" ry="2"/><rect class="c" x="674" y="66" rx="2" ry="2"/><rect class="c" x="674" y="82" rx="2" ry="2"/><rect class="c" x="674" y="98" rx="2" ry="2"/><rect class="c" x="690" y="2" rx="2" ry="2"/><rect class="c" x="690" y="18" rx="2" ry="2"/><rect class="c" x="690" y="34" rx="2" ry="2"/><rect class="c" x="690" y="50" rx="2" ry="2"/><rect class="c" x="690" y="66" rx="2" ry="2"/><rect class="c" x="690" y="82" rx="2" ry="2"/><rect class="c" x="690" y="98" rx="2" ry="2"/><rect class="c" x="706" y="2" rx="2" ry="2"/><rect class="c" x="706" y="18" rx="2" ry="2"/><rect class="c" x="706" y="34" rx="2" ry="2"/><rect class="c" x="706" y="50" rx="2" ry="2"/><rect class="c" x="706" y="66" rx="2" ry="2"/><rect class="c" x="706" y="82" rx="2" ry="2"/><rect class="c" x="706" y="98" rx="2" ry="2"/><rect class="c" x="722" y="2" rx="2" ry="2"/><rect class="c" x="722" y="18" rx="2" ry="2"/><rect class="c" x="722" y="34" rx="2" ry="2"/><rect class="c" x="722" y="50" rx="2" ry="2"/><rect class="c" x="722" y="66" rx="2" ry="2"/><rect class="c" x="722" y="82" rx="2" ry="2"/><rect class="c" x="722" y="98" rx="2" ry="2"/><rect class="c" x="738" y="2" rx="2" ry="2"/><rect class="c" x="738" y="18" rx="2" ry="2"/><rect class="c" x="738" y="34" rx="2" ry="2"/><rect class="c" x="738" y="50" rx="2" ry="2"/><rect class="c" x="738" y="66" rx="2" ry="2"/><rect class="c" x="738" y="82" rx="2" ry="2"/><rect class="c" x="738" y="98" rx="2" ry="2"/><rect class="c" x="754" y="2" rx="2" ry="2"/><rect class="c" x="754" y="18" rx="2" ry="2"/><rect class="c" x="754" y="34" rx="2" ry="2"/><rect class="c" x="754" y="50" rx="2" ry="2"/><rect class="c" x="754" y="66" rx="2" ry="2"/><rect class="c" x="754" y="82" rx="2" ry="2"/><rect class="c" x="754" y="98" rx="2" ry="2"/><rect class="c" x="770" y="2" rx="2" ry="2"/><rect class="c" x="770" y="18" rx="2" ry="2"/><rect class="c" x="770" y="34" rx="2" ry="2"/><rect class="c ca" x="770" y="50" rx="2" ry="2"/><rect class="c" x="770" y="66" rx="2" ry="2"/><rect class="c" x="770" y="82" rx="2" ry="2"/><rect class="c" x="770" y="98" rx="2" ry="2"/><rect class="c cb" x="786" y="2" rx="2" ry="2"/><rect class="c" x="786" y="18" rx="2" ry="2"/><rect class="c" x="786" y="34" rx="2" ry="2"/><rect class="c" x="786" y="50" rx="2" ry="2"/><rect class="c" x="786" y="66" rx="2" ry="2"/><rect class="c cc" x="786" y="82" rx="2" ry="2"/><rect class="c" x="786" y="98" rx="2" ry="2"/><rect class="c cd" x="802" y="2" rx="2" ry="2"/><rect class="c ce" x="802" y="18" rx="2" ry="2"/><rect class="c cf" x="802" y="34" rx="2" ry="2"/><rect class="c cg" x="802" y="50" rx="2" ry="2"/><rect class="c ch" x="802" y="66" rx="2" ry="2"/><rect class="c ci" x="802" y="82" rx="2" ry="2"/><rect class="c cj" x="802" y="98" rx="2" ry="2"/><rect class="c" x="818" y="2" rx="2" ry="2"/><rect class="c ck" x="818" y="18" rx="2" ry="2"/><rect class="c cl" x="818" y="34" rx="2" ry="2"/><rect class="c cm" x="818" y="50" rx="2" ry="2"/><rect class="c cn" x="818" y="66" rx="2" ry="2"/><rect class="c co" x="818" y="82" rx="2" ry="2"/><rect class="c" x="818" y="98" rx="2" ry="2"/><rect class="c" x="834" y="2" rx="2" ry="2"/><rect class="c" x="834" y="18" rx="2" ry="2"/><rect class="c" x="834" y="34" rx="2" ry="2"/><rect class="c" x="834" y="50" rx="2" ry="2"/><rect class="c cp" x="834" y="66" rx="2" ry="2"/><rect class="u u0" height="12" width="555.1" x="0.0" y="144"/><rect class="u u1" height="12" width="196.3" x="554.5" y="144"/><rect class="u u2" height="12" width="98.4" x="750.2" y="144"/><rect class="s s0" x="0.8" y="0.8" width="14.4" height="14.4" rx="4.5" ry="4.5"/><rect class="s s1" x="1.8" y="1.8" width="12.3" height="12.3" rx="4.1" ry="4.1"/><rect class="s s2" x="2.6" y="2.6" width="10.8" height="10.8" rx="3.6" ry="3.6"/><rect class="s s3" x="3.0" y="3.0" width="9.9" height="9.9" rx="3.3" ry="3.3"/></svg>
